<svg width="14" height="14" viewBox="0 0 14 14" fill="none" xmlns="http://www.w3.org/2000/svg">
<g id="arrow-right-o" clip-path="url(#clip0_11458_699)">
<g id="arrow-right-o_2">
<path d="M6.97101 8.6501L6.14606 9.47506L3.67118 7.00019L6.14606 4.52531L6.97101 5.35027L5.90443 6.41685H10.3011V7.58352H5.90443L6.97101 8.6501Z" fill="white"/>
<path fill-rule="evenodd" clip-rule="evenodd" d="M2.46404 11.5374C-0.0418282 9.03157 -0.0418282 4.96876 2.46404 2.46289C4.9699 -0.0429699 9.03271 -0.0429699 11.5386 2.46289C14.0444 4.96876 14.0444 9.03157 11.5386 11.5374C9.03271 14.0433 4.9699 14.0433 2.46404 11.5374ZM3.28899 10.7125C1.23874 8.66222 1.23874 5.33811 3.28899 3.28785C5.33925 1.2376 8.66336 1.2376 10.7136 3.28785C12.7639 5.33811 12.7639 8.66222 10.7136 10.7125C8.66336 12.7627 5.33925 12.7627 3.28899 10.7125Z" fill="white"/>
</g>
</g>
<defs>
<clipPath id="clip0_11458_699">
<rect width="14" height="14" fill="white" transform="matrix(-1 0 0 1 14 0)"/>
</clipPath>
</defs>
</svg>
