<svg width="64" height="64" viewBox="0 0 64 64" fill="none" xmlns="http://www.w3.org/2000/svg">
<path d="M50.668 54.6667C49.0715 54.6667 47.6617 54.1671 46.4386 53.168C45.2155 52.1689 44.4555 50.8907 44.1586 49.3334H29.3346C26.7426 49.3334 24.5391 48.4258 22.724 46.6107C20.9089 44.7956 20.0013 42.592 20.0013 40C20.0013 37.408 20.9089 35.2045 22.724 33.3894C24.5391 31.5743 26.7426 30.6667 29.3346 30.6667H34.668C36.5009 30.6667 38.0706 30.0134 39.3773 28.7067C40.6822 27.3983 41.3346 25.8258 41.3346 23.9894C41.3346 22.1529 40.6822 20.5849 39.3773 19.2854C38.0724 17.9858 36.5026 17.3352 34.668 17.3334H19.8413C19.5391 18.8889 18.7782 20.1672 17.5586 21.168C16.3391 22.1689 14.9311 22.6685 13.3346 22.6667C11.4822 22.6667 9.90886 22.0196 8.61464 20.7254C7.31686 19.4294 6.66797 17.856 6.66797 16.0054C6.66797 14.1547 7.31686 12.5805 8.61464 11.2827C9.91241 9.98493 11.4857 9.33515 13.3346 9.33337C14.9311 9.33337 16.3391 9.83382 17.5586 10.8347C18.7764 11.8338 19.5382 13.1112 19.844 14.6667H34.668C37.26 14.6667 39.4635 15.5743 41.2786 17.3894C43.0937 19.2045 44.0013 21.408 44.0013 24C44.0013 26.592 43.0937 28.7956 41.2786 30.6107C39.4635 32.4258 37.26 33.3334 34.668 33.3334H29.3346C27.5017 33.3334 25.932 33.9876 24.6253 35.296C23.3204 36.6027 22.668 38.1743 22.668 40.0107C22.668 41.8471 23.3213 43.4151 24.628 44.7147C25.9329 46.016 27.5017 46.6667 29.3346 46.6667H44.1613C44.4635 45.1111 45.2244 43.8338 46.444 42.8347C47.6635 41.8356 49.0715 41.3352 50.668 41.3334C52.5204 41.3334 54.0938 41.9814 55.388 43.2774C56.6857 44.5716 57.3346 46.144 57.3346 47.9947C57.3346 49.8454 56.6857 51.4196 55.388 52.7174C54.0902 54.0151 52.5169 54.6649 50.668 54.6667ZM13.3346 20C14.4315 20 15.3729 19.608 16.1586 18.824C16.9426 18.0383 17.3346 17.0969 17.3346 16C17.3346 14.9032 16.9426 13.9618 16.1586 13.176C15.3729 12.392 14.4315 12 13.3346 12C12.2377 12 11.2964 12.392 10.5106 13.176C9.72664 13.9618 9.33464 14.9032 9.33464 16C9.33464 17.0969 9.72664 18.0383 10.5106 18.824C11.2964 19.608 12.2377 20 13.3346 20Z" fill="#7E22CE" fill-opacity="0.7"/>
</svg>
