<svg width="596" height="2820" viewBox="0 0 596 2820" fill="none" xmlns="http://www.w3.org/2000/svg">
<g opacity="0.5">
<rect x="207.047" y="1434.78" width="33.8038" height="426.322" fill="#9333EA"/>
<rect x="266.203" y="1434.78" width="33.8038" height="426.322" fill="#CA8A04"/>
<rect x="325.359" y="1434.78" width="33.8038" height="426.322" fill="#C026D3"/>
<path d="M292 2726.91C300.799 2726.91 309.511 2725.18 317.64 2721.81C325.769 2718.44 333.155 2713.51 339.376 2707.29C345.598 2701.06 350.533 2693.68 353.9 2685.55C357.267 2677.42 359 2668.71 359 2659.91H327.001C327.001 2664.51 326.095 2669.06 324.337 2673.3C322.578 2677.55 319.999 2681.41 316.749 2684.66C313.499 2687.91 309.641 2690.49 305.394 2692.25C301.148 2694 296.596 2694.91 292 2694.91V2726.91Z" fill="#C026D3"/>
<rect x="292" y="2726.91" width="292" height="32" transform="rotate(180 292 2726.91)" fill="#C026D3"/>
<rect x="359" y="2659.91" width="32" height="798.846" transform="rotate(180 359 2659.91)" fill="#C026D3"/>
<path d="M174 2820C182.799 2820 191.511 2818.27 199.64 2814.9C207.769 2811.53 215.155 2806.6 221.376 2800.38C227.598 2794.15 232.533 2786.77 235.9 2778.64C239.267 2770.51 241 2761.8 241 2753H209.001C209.001 2757.6 208.095 2762.15 206.337 2766.39C204.578 2770.64 201.999 2774.5 198.749 2777.75C195.499 2781 191.641 2783.58 187.394 2785.34C183.148 2787.1 178.596 2788 174 2788V2820Z" fill="#9333EA"/>
<rect x="174" y="2820" width="174" height="32" transform="rotate(180 174 2820)" fill="#9333EA"/>
<rect x="241" y="2753" width="32" height="891.855" transform="rotate(180 241 2753)" fill="#9333EA"/>
<path d="M233 2771.57C241.799 2771.57 250.511 2769.84 258.64 2766.47C266.769 2763.11 274.155 2758.17 280.376 2751.95C286.598 2745.73 291.533 2738.34 294.9 2730.21C298.267 2722.08 300 2713.37 300 2704.57H268.001C268.001 2709.17 267.095 2713.72 265.337 2717.97C263.578 2722.21 260.999 2726.07 257.749 2729.32C254.499 2732.57 250.641 2735.15 246.394 2736.91C242.148 2738.67 237.596 2739.57 233 2739.57V2771.57Z" fill="#CA8A04"/>
<rect x="233" y="2771.57" width="233" height="32" transform="rotate(180 233 2771.57)" fill="#CA8A04"/>
<rect x="300" y="2704.57" width="32" height="843.501" transform="rotate(180 300 2704.57)" fill="#CA8A04"/>
<path d="M274 110.165C265.201 110.165 256.489 111.898 248.36 115.265C240.231 118.632 232.845 123.567 226.624 129.789C220.402 136.01 215.467 143.396 212.1 151.525C208.733 159.654 207 168.366 207 177.165H238.999C238.999 172.569 239.905 168.017 241.663 163.771C243.422 159.524 246.001 155.666 249.251 152.416C252.501 149.165 256.359 146.587 260.606 144.828C264.852 143.069 269.404 142.164 274 142.164V110.165Z" fill="#9333EA"/>
<rect x="274" y="110.165" width="322" height="32" fill="#9333EA"/>
<rect x="207" y="177.165" width="32" height="831.27" fill="#9333EA"/>
<path d="M392 0C383.201 -1.04922e-07 374.489 1.73301 366.36 5.10007C358.231 8.46714 350.845 13.4023 344.624 19.6238C338.402 25.8454 333.467 33.2314 330.1 41.3602C326.733 49.489 325 58.2014 325 67H356.999C356.999 62.4036 357.905 57.8523 359.663 53.6058C361.422 49.3593 364.001 45.5008 367.251 42.2507C370.501 39.0006 374.359 36.4224 378.606 34.6635C382.852 32.9045 387.404 31.9992 392 31.9992V0Z" fill="#C026D3"/>
<rect x="392" width="204" height="32" fill="#C026D3"/>
<rect x="325" y="67" width="32" height="941.12" fill="#C026D3"/>
<path d="M333 61.1259C324.201 61.1259 315.489 62.8589 307.36 66.2259C299.231 69.593 291.845 74.5282 285.624 80.7497C279.402 86.9712 274.467 94.3573 271.1 102.486C267.733 110.615 266 119.327 266 128.126H297.999C297.999 123.529 298.905 118.978 300.663 114.732C302.422 110.485 305.001 106.627 308.251 103.377C311.501 100.126 315.359 97.5483 319.606 95.7893C323.852 94.0304 328.404 93.1251 333 93.1251V61.1259Z" fill="#CA8A04"/>
<rect x="333" y="61.1259" width="263" height="32" fill="#CA8A04"/>
<rect x="266" y="128.126" width="32" height="879.995" fill="#CA8A04"/>
<rect x="207.047" y="1008.76" width="33.8038" height="426.322" fill="#9333EA"/>
<rect x="266.203" y="1008.76" width="33.8038" height="426.322" fill="#CA8A04"/>
<rect x="325.359" y="1008.76" width="33.8038" height="426.322" fill="#C026D3"/>
</g>
</svg>
