<svg width="64" height="64" viewBox="0 0 64 64" fill="none" xmlns="http://www.w3.org/2000/svg">
<path d="M30.7217 38.656C30.7217 38.912 30.8497 39.296 30.8497 39.68C30.8497 41.472 30.2097 43.008 28.9297 44.288L26.3697 46.848C25.0897 48.128 23.5537 48.768 21.7617 48.768C18.1777 48.768 15.2337 45.824 15.2337 42.24C15.2337 40.448 15.8737 38.912 17.1537 37.632L19.7137 35.072C20.9937 33.792 22.5297 33.152 24.3217 33.152C24.7057 33.152 24.9617 33.152 25.3457 33.28L27.2657 31.36C26.3697 30.976 25.3457 30.848 24.3217 30.848C21.8897 30.848 19.7137 31.744 18.0497 33.408L15.4897 35.968C13.8257 37.632 12.9297 39.808 12.9297 42.24C12.9297 47.104 16.8977 51.072 21.7617 51.072C24.1937 51.072 26.3697 50.176 28.0337 48.512L30.5937 45.952C32.2577 44.288 33.1537 42.112 33.1537 39.68C33.1537 38.656 33.0257 37.632 32.6417 36.736L30.7217 38.656ZM42.2417 12.928C39.8097 12.928 37.6337 13.824 35.9697 15.488L33.4097 18.048C31.7457 19.712 30.8497 21.888 30.8497 24.32C30.8497 25.344 30.9777 26.368 31.3617 27.264L33.2817 25.344C33.2817 25.088 33.1537 24.704 33.1537 24.32C33.1537 22.528 33.7937 20.992 35.0737 19.712L37.6337 17.152C38.9137 15.872 40.4497 15.232 42.2417 15.232C45.8257 15.232 48.7697 18.176 48.7697 21.76C48.7697 23.552 48.1297 25.088 46.8497 26.368L44.2897 28.928C43.0097 30.208 41.4737 30.848 39.6817 30.848C39.2977 30.848 39.0417 30.848 38.6577 30.72L36.7377 32.64C37.6337 33.024 38.6577 33.152 39.6817 33.152C42.1137 33.152 44.2897 32.256 45.9537 30.592L48.5137 28.032C50.1777 26.368 51.0737 24.192 51.0737 21.76C51.0737 16.896 47.1057 12.928 42.2417 12.928Z" fill="#7E22CE" fill-opacity="0.7"/>
<path d="M25.6003 39.6799C25.2163 39.6799 24.9603 39.5519 24.7043 39.2959C24.1923 38.7839 24.1923 38.0159 24.7043 37.5039L37.5043 24.7039C38.0163 24.1919 38.7843 24.1919 39.2963 24.7039C39.8083 25.2159 39.8083 25.9839 39.2963 26.4959L26.4963 39.2959C26.2403 39.5519 25.9843 39.6799 25.6003 39.6799Z" fill="#7E22CE" fill-opacity="0.7"/>
</svg>
