<svg width="23" height="23" viewBox="0 0 23 23" fill="none" xmlns="http://www.w3.org/2000/svg">
<g id="clarity:block-quote-line">
<path id="Vector" d="M7.87606 11.02C7.424 11.0215 6.97994 11.1394 6.58661 11.3622C7.14037 9.92884 8.05882 8.66493 9.25106 7.69553C9.31927 7.63936 9.37575 7.5703 9.41728 7.49229C9.4588 7.41429 9.48456 7.32887 9.49307 7.24091C9.50158 7.15295 9.49268 7.06418 9.46689 6.97966C9.44109 6.89514 9.3989 6.81653 9.34273 6.74831C9.28655 6.6801 9.21749 6.62362 9.13948 6.58209C9.06148 6.54057 8.97606 6.51481 8.8881 6.5063C8.80014 6.49779 8.71137 6.50669 8.62685 6.53248C8.54233 6.55828 8.46372 6.60047 8.3955 6.65665C5.95106 8.64276 4.86328 11.3928 4.86328 13.0978C4.86749 13.7006 5.04715 14.2892 5.38031 14.7917C5.71346 15.2941 6.18571 15.6887 6.73939 15.9272C7.09772 16.1008 7.49013 16.1926 7.88828 16.1961C8.23873 16.2131 8.58899 16.1588 8.91781 16.0364C9.24664 15.9141 9.54719 15.7262 9.80124 15.4842C10.0553 15.2422 10.2575 14.9511 10.3957 14.6286C10.5339 14.3061 10.6052 13.9589 10.6052 13.608C10.6052 13.2572 10.5339 12.91 10.3957 12.5875C10.2575 12.265 10.0553 11.9739 9.80124 11.7319C9.54719 11.4899 9.24664 11.302 8.91781 11.1796C8.58899 11.0573 8.23873 11.0029 7.88828 11.02H7.87606Z" fill="#7838A6"/>
<path id="Vector_2" d="M14.6847 11.0198C14.2325 11.0207 13.7883 11.1386 13.3952 11.362C13.9487 9.93014 14.8648 8.66665 16.0535 7.69533C16.1279 7.64169 16.1906 7.5734 16.2376 7.49465C16.2846 7.41591 16.3151 7.32837 16.327 7.23743C16.3389 7.14648 16.3321 7.05406 16.307 6.96585C16.2818 6.87764 16.2389 6.7955 16.1809 6.7245C16.1228 6.65349 16.0508 6.59511 15.9694 6.55297C15.8879 6.51082 15.7987 6.48578 15.7072 6.47941C15.6157 6.47303 15.5239 6.48545 15.4373 6.5159C15.3508 6.54634 15.2714 6.59417 15.2041 6.65644C12.7597 8.64255 11.6719 11.3925 11.6719 13.0975C11.6748 13.6936 11.8492 14.2762 12.1743 14.7757C12.4994 15.2753 12.9614 15.6707 13.5052 15.9148C13.8726 16.0934 14.2761 16.1854 14.6847 16.1837C15.0351 16.2007 15.3854 16.1464 15.7142 16.024C16.043 15.9016 16.3436 15.7137 16.5976 15.4717C16.8517 15.2297 17.0539 14.9387 17.1921 14.6162C17.3303 14.2937 17.4016 13.9465 17.4016 13.5956C17.4016 13.2447 17.3303 12.8975 17.1921 12.575C17.0539 12.2525 16.8517 11.9615 16.5976 11.7195C16.3436 11.4775 16.043 11.2896 15.7142 11.1672C15.3854 11.0448 15.0351 10.9905 14.6847 11.0075V11.0198Z" fill="#7838A6"/>
</g>
</svg>
