<svg width="267" height="267" viewBox="0 0 267 267" fill="none" xmlns="http://www.w3.org/2000/svg">
<path d="M61.8388 0.324219C42.5631 5.21173 37.2067 10.4274 33.8398 22.5419L44.9429 233.127H250.108C262.866 226.309 266.78 216.153 267.003 184.828C260.67 121.966 252.941 86.1342 241.418 22.5419C235.608 13.726 234.345 7.83951 211.488 7.08612L61.8388 0.324219Z" fill="#7838A6"/>
<path d="M0 208.303L23.0825 34.525C28.6064 21.4157 33.5285 15.4088 49.8583 8.64316C101.464 3.79631 143.264 2.76197 213.283 0.323975C231.328 5.75061 242.152 8.65565 251.138 34.525C253.281 104.62 255.537 154.647 255.293 200.446C254.556 220.796 250.031 228.893 234.057 236.958C137.251 254.738 84.2754 264.324 38.7787 267C11.3426 258.448 0.201295 246.652 0 208.303Z" fill="#0D0D0D"/>
</svg>
