<svg width="64" height="64" viewBox="0 0 64 64" fill="none" xmlns="http://www.w3.org/2000/svg">
<g id="icon / iconoir / three-stars">
<path id="Vector" d="M12.3586 38.4403L15.1293 32.5656C15.4849 31.8115 16.5125 31.8115 16.8681 32.5656L19.6388 38.4403L25.8349 39.3883C26.6299 39.5099 26.9467 40.5325 26.3712 41.1195L21.8886 45.6891L22.9465 52.1448C23.0823 52.9739 22.2509 53.6059 21.5395 53.2144L15.9987 50.1648L10.4579 53.2144C9.74654 53.6059 8.91504 52.9739 9.05091 52.1448L10.1088 45.6891L5.62616 41.1195C5.05062 40.5325 5.36747 39.5099 6.16246 39.3883L12.3586 38.4403Z" stroke="#7E22CE" stroke-width="1.5" stroke-linecap="round" stroke-linejoin="round"/>
<path id="Vector_2" d="M44.3584 38.4403L47.1293 32.5656C47.4848 31.8115 48.5125 31.8115 48.868 32.5656L51.6389 38.4403L57.8349 39.3883C58.6299 39.5099 58.9467 40.5325 58.3712 41.1195L53.8885 45.6891L54.9464 52.1448C55.0824 52.9739 54.2509 53.6059 53.5395 53.2144L47.9987 50.1648L42.4579 53.2144C41.7464 53.6059 40.9149 52.9739 41.0509 52.1448L42.1088 45.6891L37.6261 41.1195C37.0507 40.5325 37.3675 39.5099 38.1624 39.3883L44.3584 38.4403Z" stroke="#7E22CE" stroke-width="1.5" stroke-linecap="round" stroke-linejoin="round"/>
<path id="Vector_3" d="M28.3584 14.4404L31.1294 8.56562C31.4848 7.81146 32.5126 7.81146 32.868 8.56562L35.639 14.4404L41.835 15.3883C42.6299 15.5099 42.9467 16.5326 42.3712 17.1194L37.8886 21.689L38.9464 28.1448C39.0824 28.9739 38.251 29.6059 37.5395 29.2144L31.9987 26.1647L26.4579 29.2144C25.7465 29.6059 24.915 28.9739 25.0509 28.1448L26.1088 21.689L21.6262 17.1194C21.0506 16.5326 21.3675 15.5099 22.1625 15.3883L28.3584 14.4404Z" stroke="#7E22CE" stroke-width="1.5" stroke-linecap="round" stroke-linejoin="round"/>
</g>
</svg>
